<svg width="27" height="29" viewBox="0 0 27 29" fill="none" xmlns="http://www.w3.org/2000/svg">
<path d="M13.306 4.58929V8.17857M13.306 4.58929C13.306 3.87939 13.5165 3.18544 13.9109 2.59519C14.3053 2.00493 14.8659 1.54488 15.5217 1.27322C16.1776 1.00156 16.8993 0.930475 17.5955 1.06897C18.2918 1.20746 18.9313 1.54931 19.4333 2.05128C19.9353 2.55325 20.2771 3.1928 20.4156 3.88905C20.5541 4.58531 20.483 5.30699 20.2114 5.96285C19.9397 6.6187 19.4797 7.17927 18.8894 7.57367C18.2991 7.96807 17.6052 8.17857 16.8953 8.17857H13.306M13.306 4.58929C13.306 3.87939 13.0955 3.18544 12.7011 2.59519C12.3067 2.00493 11.7461 1.54488 11.0903 1.27322C10.4344 1.00156 9.71275 0.930475 9.01649 1.06897C8.32024 1.20746 7.68069 1.54931 7.17872 2.05128C6.67675 2.55325 6.3349 3.1928 6.19641 3.88905C6.05792 4.58531 6.129 5.30699 6.40066 5.96285C6.67233 6.6187 7.13237 7.17927 7.72263 7.57367C8.31288 7.96807 9.00684 8.17857 9.71673 8.17857H13.306" stroke="#A75151" stroke-width="2" stroke-miterlimit="10" stroke-linecap="round"/>
<path d="M23.5612 8.17859H3.05102C1.91827 8.17859 1 9.09686 1 10.2296V13.3061C1 14.4389 1.91827 15.3572 3.05102 15.3572H23.5612C24.694 15.3572 25.6122 14.4389 25.6122 13.3061V10.2296C25.6122 9.09686 24.694 8.17859 23.5612 8.17859Z" stroke="#A75151" stroke-width="2" stroke-linecap="round" stroke-linejoin="round"/>
<path d="M23.5612 15.3572V24.5868C23.5612 25.4027 23.2371 26.1852 22.6601 26.7622C22.0832 27.3391 21.3006 27.6633 20.4847 27.6633H6.12756C5.31161 27.6633 4.52908 27.3391 3.95212 26.7622C3.37516 26.1852 3.05103 25.4027 3.05103 24.5868V15.3572M13.3061 8.17859V27.6633" stroke="#A75151" stroke-width="2" stroke-linecap="round" stroke-linejoin="round"/>
</svg>
