<svg width="24" height="24" viewBox="0 0 24 24" fill="none" xmlns="http://www.w3.org/2000/svg">
<path d="M19.1403 11.2858H17.8438C17.8189 11.2858 17.795 11.276 17.7775 11.2584C17.7599 11.2408 17.75 11.2169 17.75 11.1921V7.57145C17.75 7.08834 17.5581 6.62502 17.2165 6.28341C16.8749 5.9418 16.4115 5.74989 15.9284 5.74989H12.3078C12.2829 5.74989 12.2591 5.74001 12.2415 5.72243C12.2239 5.70485 12.2141 5.681 12.2141 5.65614V4.35958C12.2141 3.08739 11.2062 2.02239 9.93406 2.00036C9.62583 1.99494 9.31961 2.05097 9.03327 2.16516C8.74692 2.27935 8.48618 2.44942 8.26627 2.66546C8.04635 2.88149 7.87166 3.13916 7.75238 3.42342C7.63311 3.70769 7.57164 4.01286 7.57156 4.32114V5.65614C7.57156 5.681 7.56169 5.70485 7.5441 5.72243C7.52652 5.74001 7.50268 5.74989 7.47781 5.74989H3.85719C3.36509 5.75137 2.89357 5.94752 2.5456 6.29549C2.19763 6.64345 2.00148 7.11498 2 7.60708V10.9061C2 10.931 2.00988 10.9548 2.02746 10.9724C2.04504 10.99 2.06889 10.9999 2.09375 10.9999H3.35516C4.73188 10.9999 5.87141 12.1943 5.89062 13.571C5.91031 14.9711 4.78859 16.2499 3.39266 16.2499H2.09375C2.06889 16.2499 2.04504 16.2598 2.02746 16.2773C2.00988 16.2949 2 16.3188 2 16.3436V19.6427C2.00148 20.1348 2.19763 20.6063 2.5456 20.9543C2.89357 21.3023 3.36509 21.4984 3.85719 21.4999H7.15625C7.18111 21.4999 7.20496 21.49 7.22254 21.4724C7.24012 21.4548 7.25 21.431 7.25 21.4061V20.425C7.25 19.0057 8.41016 17.7836 9.82812 17.7504C11.2391 17.7175 12.5 18.7024 12.5 20.1072V21.4061C12.5 21.431 12.5099 21.4548 12.5275 21.4724C12.545 21.49 12.5689 21.4999 12.5938 21.4999H15.9284C16.4115 21.4999 16.8749 21.308 17.2165 20.9664C17.5581 20.6248 17.75 20.1614 17.75 19.6783V16.0221C17.75 15.9972 17.7599 15.9734 17.7775 15.9558C17.795 15.9382 17.8189 15.9283 17.8438 15.9283H19.1788C20.4739 15.9283 21.5 14.8657 21.5 13.5658C21.5 12.266 20.4125 11.2858 19.1403 11.2858Z" stroke="#7EAC14" stroke-width="2" stroke-linecap="round" stroke-linejoin="round"/>
</svg>
