<svg width="24" height="24" fill="none" color="white" xmlns="http://www.w3.org/2000/svg"><path d="M9.563 2.25H3.186a.937.937 0 0 0-.937.938v6.374c0 .518.42.938.938.938h6.374c.518 0 .938-.42.938-.938V3.189a.937.937 0 0 0-.938-.938ZM20.813 2.25h-6.375a.937.937 0 0 0-.938.938v6.374c0 .518.42.938.938.938h6.374c.518 0 .938-.42.938-.938V3.189a.937.937 0 0 0-.938-.938ZM9.563 13.5H3.186a.937.937 0 0 0-.937.938v6.374c0 .518.42.938.938.938h6.374c.518 0 .938-.42.938-.938v-6.375a.937.937 0 0 0-.938-.937ZM20.813 13.5h-6.375a.937.937 0 0 0-.938.938v6.374c0 .518.42.938.938.938h6.374c.518 0 .938-.42.938-.938v-6.375a.937.937 0 0 0-.938-.937Z" stroke="#fff" stroke-width="2" strokeLinecap="round" stroke-linejoin="round"/></svg>