<svg width="30" height="30" viewBox="0 0 30 30" fill="none" xmlns="http://www.w3.org/2000/svg">
<path d="M24.375 8.4375H5.625C4.0717 8.4375 2.8125 9.6967 2.8125 11.25V22.5C2.8125 24.0533 4.0717 25.3125 5.625 25.3125H24.375C25.9283 25.3125 27.1875 24.0533 27.1875 22.5V11.25C27.1875 9.6967 25.9283 8.4375 24.375 8.4375Z" stroke="black" stroke-width="2" stroke-linejoin="round"/>
<path d="M24.1031 8.43747V6.67966C24.103 6.24853 24.0077 5.82275 23.8241 5.43269C23.6404 5.04262 23.3729 4.6979 23.0407 4.42311C22.7085 4.14832 22.3198 3.95024 21.9022 3.843C21.4846 3.73576 21.0485 3.722 20.625 3.80271L5.19375 6.4365C4.52363 6.5642 3.91907 6.92176 3.48436 7.4475C3.04965 7.97324 2.81204 8.6342 2.8125 9.31638V12.1875" stroke="black" stroke-width="2" stroke-linejoin="round"/>
<path d="M21.5625 18.75C21.1917 18.75 20.8291 18.64 20.5208 18.434C20.2125 18.228 19.9721 17.9351 19.8302 17.5925C19.6883 17.2499 19.6512 16.8729 19.7235 16.5092C19.7959 16.1455 19.9745 15.8114 20.2367 15.5492C20.4989 15.287 20.833 15.1084 21.1967 15.036C21.5604 14.9637 21.9374 15.0008 22.28 15.1427C22.6226 15.2846 22.9155 15.525 23.1215 15.8333C23.3275 16.1416 23.4375 16.5042 23.4375 16.875C23.4375 17.3723 23.24 17.8492 22.8883 18.2008C22.5367 18.5525 22.0598 18.75 21.5625 18.75Z" fill="black"/>
</svg>
