<svg width="20" height="20" viewBox="0 0 20 20" fill="none" xmlns="http://www.w3.org/2000/svg">
<path d="M8.125 8.125V18.4375C8.12359 18.561 8.14687 18.6835 8.19348 18.7979C8.2401 18.9123 8.3091 19.0162 8.39644 19.1036C8.48378 19.1909 8.58769 19.2599 8.70207 19.3065C8.81645 19.3531 8.93899 19.3764 9.0625 19.375C9.18601 19.3764 9.30855 19.3531 9.42293 19.3065C9.53731 19.2599 9.64122 19.1909 9.72856 19.1036C9.8159 19.0162 9.8849 18.9123 9.93152 18.7979C9.97813 18.6835 10.0014 18.561 10 18.4375" stroke="white" stroke-miterlimit="10" stroke-linecap="round"/>
<path d="M10 13.125V18.4375C9.99859 18.561 10.0219 18.6835 10.0685 18.7979C10.1151 18.9123 10.1841 19.0162 10.2714 19.1036C10.3588 19.1909 10.4627 19.2599 10.5771 19.3065C10.6914 19.3531 10.814 19.3764 10.9375 19.375C11.061 19.3764 11.1836 19.3531 11.2979 19.3065C11.4123 19.2599 11.5162 19.1909 11.6036 19.1036C11.6909 19.0162 11.7599 18.9123 11.8065 18.7979C11.8531 18.6835 11.8764 18.561 11.875 18.4375V8.125" stroke="white" stroke-miterlimit="10" stroke-linecap="round"/>
<path d="M8.125 7.5V10.9375C8.12647 11.061 8.10322 11.1836 8.05663 11.298C8.01004 11.4124 7.94103 11.5163 7.85369 11.6037C7.76634 11.691 7.6624 11.76 7.548 11.8066C7.43359 11.8532 7.31103 11.8765 7.1875 11.875C7.06398 11.8765 6.94142 11.8532 6.82701 11.8066C6.7126 11.76 6.60867 11.691 6.52132 11.6037C6.43397 11.5163 6.36497 11.4124 6.31838 11.298C6.27178 11.1836 6.24854 11.061 6.25 10.9375V7.5C6.25 7.00272 6.44755 6.52581 6.79918 6.17417C7.15081 5.82254 7.62772 5.625 8.125 5.625H11.875C12.3723 5.625 12.8492 5.82254 13.2008 6.17417C13.5525 6.52581 13.75 7.00272 13.75 7.5V10.9375C13.7515 11.061 13.7282 11.1836 13.6816 11.298C13.635 11.4124 13.566 11.5163 13.4787 11.6037C13.3913 11.691 13.2874 11.76 13.173 11.8066C13.0586 11.8532 12.936 11.8765 12.8125 11.875C12.689 11.8765 12.5664 11.8532 12.452 11.8066C12.3376 11.76 12.2337 11.691 12.1463 11.6037C12.059 11.5163 11.99 11.4124 11.9434 11.298C11.8968 11.1836 11.8735 11.061 11.875 10.9375V7.5" stroke="white" stroke-miterlimit="10" stroke-linecap="round"/>
<path d="M10 3.75C10.8629 3.75 11.5625 3.05044 11.5625 2.1875C11.5625 1.32456 10.8629 0.625 10 0.625C9.13706 0.625 8.4375 1.32456 8.4375 2.1875C8.4375 3.05044 9.13706 3.75 10 3.75Z" stroke="white" stroke-miterlimit="10" stroke-linecap="round"/>
</svg>
