<svg width="50" height="49" viewBox="0 0 50 49" fill="none" xmlns="http://www.w3.org/2000/svg">
<circle cx="25" cy="24.5" r="24.5" fill="#DEDEDE"/>
<path d="M15.25 27.75L34.75 27.75C35.1642 27.75 35.5 27.4142 35.5 27V16.5C35.5 16.0858 35.1642 15.75 34.75 15.75L15.25 15.75C14.8358 15.75 14.5 16.0858 14.5 16.5V27C14.5 27.4142 14.8358 27.75 15.25 27.75Z" stroke="#1C1C1E" stroke-width="2" stroke-linejoin="round"/>
<path d="M16 30H34M17.5 32.25H32.5" stroke="#1C1C1E" stroke-width="2" stroke-linecap="round" stroke-linejoin="round"/>
<path d="M25 25.5C27.0711 25.5 28.75 23.8211 28.75 21.75C28.75 19.6789 27.0711 18 25 18C22.9289 18 21.25 19.6789 21.25 21.75C21.25 23.8211 22.9289 25.5 25 25.5Z" stroke="#1C1C1E" stroke-width="2" stroke-linecap="round" stroke-linejoin="round"/>
<path d="M35.5 19.5C34.5054 19.5 33.5516 19.1049 32.8483 18.4017C32.1451 17.6984 31.75 16.7446 31.75 15.75M14.5 19.5C14.9925 19.5 15.4801 19.403 15.9351 19.2145C16.39 19.0261 16.8034 18.7499 17.1517 18.4017C17.4999 18.0534 17.7761 17.64 17.9645 17.1851C18.153 16.7301 18.25 16.2425 18.25 15.75M35.5 24C34.5054 24 33.5516 24.3951 32.8483 25.0983C32.1451 25.8016 31.75 26.7554 31.75 27.75M14.5 24C14.9925 24 15.4801 24.097 15.9351 24.2855C16.39 24.4739 16.8034 24.7501 17.1517 25.0983C17.4999 25.4466 17.7761 25.86 17.9645 26.3149C18.153 26.7699 18.25 27.2575 18.25 27.75" stroke="#1C1C1E" stroke-width="2" stroke-linecap="round" stroke-linejoin="round"/>
</svg>
