<svg width="49" height="49" viewBox="0 0 49 49" fill="none" xmlns="http://www.w3.org/2000/svg">
<circle cx="24.5" cy="24.5" r="24.5" fill="#4ECAE8"/>
<path d="M19.5 20.25V18.75C19.5 17.5565 19.9741 16.4119 20.818 15.568C21.6619 14.7241 22.8065 14.25 24 14.25C25.1935 14.25 26.3381 14.7241 27.182 15.568C28.0259 16.4119 28.5 17.5565 28.5 18.75V20.25M15.75 20.25C15.5511 20.25 15.3603 20.329 15.2197 20.4697C15.079 20.6103 15 20.8011 15 21V31.125C15 32.5425 16.2075 33.75 17.625 33.75H30.375C31.7925 33.75 33 32.6011 33 31.1836V21C33 20.8011 32.921 20.6103 32.7803 20.4697C32.6397 20.329 32.4489 20.25 32.25 20.25H15.75Z" stroke="#328498" stroke-width="2" stroke-linecap="round" stroke-linejoin="round"/>
<path d="M19.5 22.5V23.25C19.5 24.4435 19.9741 25.5881 20.818 26.432C21.6619 27.2759 22.8065 27.75 24 27.75C25.1935 27.75 26.3381 27.2759 27.182 26.432C28.0259 25.5881 28.5 24.4435 28.5 23.25V22.5" stroke="#328498" stroke-width="2" stroke-linecap="round" stroke-linejoin="round"/>
</svg>
