<svg width="49" height="49" viewBox="0 0 49 49" fill="none" xmlns="http://www.w3.org/2000/svg">
<circle cx="24.5" cy="24.5" r="24.5" fill="#EDD100"/>
<path d="M30.8437 19.875C30.7064 21.7814 29.2922 23.25 27.75 23.25C26.2078 23.25 24.7912 21.7819 24.6562 19.875C24.5156 17.8917 25.8923 16.5 27.75 16.5C29.6076 16.5 30.9844 17.9278 30.8437 19.875Z" stroke="#ED8600" stroke-width="2" stroke-linecap="round" stroke-linejoin="round"/>
<path d="M27.75 26.25C24.6952 26.25 21.7575 27.7673 21.0216 30.7223C20.9241 31.1133 21.1692 31.5 21.5709 31.5H33.9295C34.3312 31.5 34.575 31.1133 34.4789 30.7223C33.743 27.72 30.8053 26.25 27.75 26.25Z" stroke="#ED8600" stroke-width="2" stroke-miterlimit="10"/>
<path d="M21.375 20.7159C21.2653 22.2384 20.1225 23.4375 18.8906 23.4375C17.6588 23.4375 16.5141 22.2389 16.4063 20.7159C16.2942 19.132 17.4066 18 18.8906 18C20.3747 18 21.4871 19.1611 21.375 20.7159Z" stroke="#ED8600" stroke-width="2" stroke-linecap="round" stroke-linejoin="round"/>
<path d="M21.6562 26.3437C20.8101 25.9561 19.8783 25.807 18.8906 25.807C16.4531 25.807 14.1047 27.0187 13.5164 29.3789C13.439 29.6911 13.635 30 13.9556 30H19.2187" stroke="#ED8600" stroke-width="2" stroke-miterlimit="10" stroke-linecap="round"/>
</svg>
