<svg width="49" height="49" viewBox="0 0 49 49" fill="none" xmlns="http://www.w3.org/2000/svg">
<circle cx="24.5" cy="24.5" r="24.5" fill="#428BF9"/>
<path d="M30.75 17.25H17.25C16.4216 17.25 15.75 17.9216 15.75 18.75V24.75C15.75 25.5784 16.4216 26.25 17.25 26.25H30.75C31.5784 26.25 32.25 25.5784 32.25 24.75V18.75C32.25 17.9216 31.5784 17.25 30.75 17.25Z" stroke="#284F8A" stroke-width="2" stroke-linecap="round" stroke-linejoin="round"/>
<path d="M30.75 26.25H17.25C16.4216 26.25 15.75 26.9216 15.75 27.75V30.75C15.75 31.5784 16.4216 32.25 17.25 32.25H30.75C31.5784 32.25 32.25 31.5784 32.25 30.75V27.75C32.25 26.9216 31.5784 26.25 30.75 26.25Z" stroke="#284F8A" stroke-width="2" stroke-linecap="round" stroke-linejoin="round"/>
<path d="M30.75 17.25H17.25C16.8525 17.2489 16.4716 17.0905 16.1906 16.8094C15.9095 16.5284 15.7511 16.1475 15.75 15.75C15.7511 15.3525 15.9095 14.9716 16.1906 14.6906C16.4716 14.4095 16.8525 14.2511 17.25 14.25H30.75C31.1475 14.2511 31.5284 14.4095 31.8094 14.6906C32.0905 14.9716 32.2489 15.3525 32.25 15.75C32.2489 16.1475 32.0905 16.5284 31.8094 16.8094C31.5284 17.0905 31.1475 17.2489 30.75 17.25ZM18.75 32.25V33.2812C18.75 33.4056 18.7006 33.5248 18.6127 33.6127C18.5248 33.7006 18.4056 33.75 18.2812 33.75H16.9688C16.8444 33.75 16.7252 33.7006 16.6373 33.6127C16.5494 33.5248 16.5 33.4056 16.5 33.2812V32.25H18.75ZM31.5 32.25V33.2812C31.5 33.4056 31.4506 33.5248 31.3627 33.6127C31.2748 33.7006 31.1556 33.75 31.0312 33.75H29.7188C29.5944 33.75 29.4752 33.7006 29.3873 33.6127C29.2994 33.5248 29.25 33.4056 29.25 33.2812V32.25H31.5Z" stroke="#284F8A" stroke-width="2" stroke-linecap="round" stroke-linejoin="round"/>
<path d="M29.25 30C29.6642 30 30 29.6642 30 29.25C30 28.8358 29.6642 28.5 29.25 28.5C28.8358 28.5 28.5 28.8358 28.5 29.25C28.5 29.6642 28.8358 30 29.25 30Z" stroke="#284F8A" stroke-width="2" stroke-linejoin="round"/>
<path d="M18.75 30C19.1642 30 19.5 29.6642 19.5 29.25C19.5 28.8358 19.1642 28.5 18.75 28.5C18.3358 28.5 18 28.8358 18 29.25C18 29.6642 18.3358 30 18.75 30Z" stroke="#284F8A" stroke-width="2" stroke-linejoin="round"/>
<path d="M24 17.25V26.25M15.75 15.75V29.25M32.25 15.75V29.25" stroke="#284F8A" stroke-width="2" stroke-linecap="round" stroke-linejoin="round"/>
</svg>
