<svg width="49" height="49" viewBox="0 0 49 49" fill="none" xmlns="http://www.w3.org/2000/svg">
<circle cx="24.5" cy="24.5" r="24.5" fill="#AFF218"/>
<path d="M33.1403 24.2858H31.8438C31.8189 24.2858 31.795 24.276 31.7775 24.2584C31.7599 24.2408 31.75 24.2169 31.75 24.1921V20.5715C31.75 20.0883 31.5581 19.625 31.2165 19.2834C30.8749 18.9418 30.4115 18.7499 29.9284 18.7499H26.3078C26.2829 18.7499 26.2591 18.74 26.2415 18.7224C26.2239 18.7048 26.2141 18.681 26.2141 18.6561V17.3596C26.2141 16.0874 25.2062 15.0224 23.9341 15.0004C23.6258 14.9949 23.3196 15.051 23.0333 15.1652C22.7469 15.2793 22.4862 15.4494 22.2663 15.6655C22.0463 15.8815 21.8717 16.1392 21.7524 16.4234C21.6331 16.7077 21.5716 17.0129 21.5716 17.3211V18.6561C21.5716 18.681 21.5617 18.7048 21.5441 18.7224C21.5265 18.74 21.5027 18.7499 21.4778 18.7499H17.8572C17.3651 18.7514 16.8936 18.9475 16.5456 19.2955C16.1976 19.6435 16.0015 20.115 16 20.6071V23.9061C16 23.931 16.0099 23.9548 16.0275 23.9724C16.045 23.99 16.0689 23.9999 16.0938 23.9999H17.3552C18.7319 23.9999 19.8714 25.1943 19.8906 26.571C19.9103 27.9711 18.7886 29.2499 17.3927 29.2499H16.0938C16.0689 29.2499 16.045 29.2598 16.0275 29.2773C16.0099 29.2949 16 29.3188 16 29.3436V32.6427C16.0015 33.1348 16.1976 33.6063 16.5456 33.9543C16.8936 34.3023 17.3651 34.4984 17.8572 34.4999H21.1562C21.1811 34.4999 21.205 34.49 21.2225 34.4724C21.2401 34.4548 21.25 34.431 21.25 34.4061V33.425C21.25 32.0057 22.4102 30.7836 23.8281 30.7504C25.2391 30.7175 26.5 31.7024 26.5 33.1072V34.4061C26.5 34.431 26.5099 34.4548 26.5275 34.4724C26.545 34.49 26.5689 34.4999 26.5938 34.4999H29.9284C30.4115 34.4999 30.8749 34.308 31.2165 33.9664C31.5581 33.6248 31.75 33.1614 31.75 32.6783V29.0221C31.75 28.9972 31.7599 28.9734 31.7775 28.9558C31.795 28.9382 31.8189 28.9283 31.8438 28.9283H33.1788C34.4739 28.9283 35.5 27.8657 35.5 26.5658C35.5 25.266 34.4125 24.2858 33.1403 24.2858Z" stroke="#7EAC14" stroke-width="2" strokeLinecap="round" stroke-linejoin="round"/>
</svg>
