<svg width="49" height="49" viewBox="0 0 49 49" fill="none" xmlns="http://www.w3.org/2000/svg">
<circle cx="24.5" cy="24.5" r="24.5" fill="#A49AD5"/>
<g clip-path="url(#clip0_16_517)">
<path d="M27.0938 31.5C27.0938 33.157 26.1258 34.5 24.4688 34.5H18.2812C16.6242 34.5 15.6562 33.157 15.6562 31.5M27.75 27.75C28.5783 27.75 29.25 28.5895 29.25 29.625C29.25 30.6605 28.5783 31.5 27.75 31.5H15C14.1717 31.5 13.5 30.6605 13.5 29.625C13.5 28.5895 14.1717 27.75 15 27.75" stroke="#685D9D" stroke-width="2" stroke-miterlimit="10" stroke-linecap="round"/>
<path d="M15 24.9375V24.9272C15 22.3491 17.1094 21 19.6875 21H23.0625C25.6406 21 27.75 22.3594 27.75 24.9375V24.9272M23.2969 17.25L23.6456 20.2486M28.125 27.75H20.4052C20.3058 27.75 20.2106 27.7895 20.1403 27.8597L18.8827 29.1173C18.8652 29.1348 18.8446 29.1486 18.8218 29.158C18.799 29.1675 18.7746 29.1723 18.75 29.1723C18.7254 29.1723 18.701 29.1675 18.6782 29.158C18.6554 29.1486 18.6348 29.1348 18.6173 29.1173L17.3597 27.8597C17.2894 27.7895 17.1942 27.75 17.0948 27.75H14.625C14.3266 27.75 14.0405 27.6315 13.8295 27.4205C13.6185 27.2095 13.5 26.9234 13.5 26.625C13.5 26.3266 13.6185 26.0405 13.8295 25.8295C14.0405 25.6185 14.3266 25.5 14.625 25.5H28.125C28.4234 25.5 28.7095 25.6185 28.9205 25.8295C29.1315 26.0405 29.25 26.3266 29.25 26.625C29.25 26.9234 29.1315 27.2095 28.9205 27.4205C28.7095 27.6315 28.4234 27.75 28.125 27.75Z" stroke="#685D9D" stroke-width="2" stroke-miterlimit="10" stroke-linecap="round"/>
<path d="M24 34.5H30.5302C30.9086 34.5 31.273 34.3569 31.5504 34.0995C31.8278 33.8421 31.9977 33.4894 32.0259 33.112L33.7031 17.25" stroke="#685D9D" stroke-width="2" stroke-miterlimit="10" stroke-linecap="round"/>
<path d="M29.25 17.25L30 14.25L32.2031 13.5" stroke="#685D9D" stroke-width="2" stroke-linecap="round" stroke-linejoin="round"/>
<path d="M22.5 17.25H34.5" stroke="#685D9D" stroke-width="2" stroke-miterlimit="10" stroke-linecap="round"/>
</g>
<defs>
<clipPath id="clip0_16_517">
<rect width="24" height="24" fill="white" transform="translate(12 12)"/>
</clipPath>
</defs>
</svg>
