<svg width="49" height="49" viewBox="0 0 49 49" fill="none" xmlns="http://www.w3.org/2000/svg">
<circle cx="24.5" cy="24.5" r="24.5" fill="#ED8C8C"/>
<path d="M24 16.875V19.5M24 16.875C24 16.3558 24.154 15.8483 24.4424 15.4166C24.7308 14.985 25.1408 14.6485 25.6205 14.4498C26.1001 14.2511 26.6279 14.1992 27.1371 14.3004C27.6463 14.4017 28.114 14.6517 28.4812 15.0188C28.8483 15.386 29.0983 15.8537 29.1996 16.3629C29.3008 16.8721 29.2489 17.3999 29.0502 17.8795C28.8515 18.3592 28.5151 18.7692 28.0834 19.0576C27.6517 19.346 27.1442 19.5 26.625 19.5H24M24 16.875C24 16.3558 23.846 15.8483 23.5576 15.4166C23.2692 14.985 22.8592 14.6485 22.3795 14.4498C21.8999 14.2511 21.3721 14.1992 20.8629 14.3004C20.3537 14.4017 19.886 14.6517 19.5188 15.0188C19.1517 15.386 18.9017 15.8537 18.8004 16.3629C18.6992 16.8721 18.7511 17.3999 18.9498 17.8795C19.1485 18.3592 19.485 18.7692 19.9166 19.0576C20.3483 19.346 20.8558 19.5 21.375 19.5H24" stroke="#A75151" stroke-width="2" strokeMiterlimit="10" strokeLinecap="round"/>
<path d="M31.5 19.5H16.5C15.6716 19.5 15 20.1716 15 21V23.25C15 24.0784 15.6716 24.75 16.5 24.75H31.5C32.3284 24.75 33 24.0784 33 23.25V21C33 20.1716 32.3284 19.5 31.5 19.5Z" stroke="#A75151" stroke-width="2" strokeLinecap="round" stroke-linejoin="round"/>
<path d="M31.5 24.75V31.5C31.5 32.0967 31.2629 32.669 30.841 33.091C30.419 33.5129 29.8467 33.75 29.25 33.75H18.75C18.1533 33.75 17.581 33.5129 17.159 33.091C16.7371 32.669 16.5 32.0967 16.5 31.5V24.75M24 19.5V33.75" stroke="#A75151" stroke-width="2" strokeLinecap="round" stroke-linejoin="round"/>
</svg>
