<svg width="49" height="49" viewBox="0 0 49 49" fill="none" xmlns="http://www.w3.org/2000/svg">
<circle cx="24.5" cy="24.5" r="24.5" fill="#00B1D0"/>
<path d="M19.5 27.75V14.25L21 15L22.5 14.25L23.9972 15L25.5145 14.25L27 15L28.4902 14.25L29.9869 15L31.5 14.25L33.0005 15L34.5 14.25V24.75" stroke="#216085" stroke-width="2" stroke-linejoin="round"/>
<path d="M34.5 24.75V30C34.5 30.9946 34.1049 31.9484 33.4017 32.6517C32.6984 33.3549 31.7446 33.75 30.75 33.75M30.75 33.75C29.7555 33.75 28.8016 33.3549 28.0984 32.6517C27.3951 31.9484 27 30.9946 27 30V27.75H14.25C14.1513 27.7491 14.0534 27.7679 13.962 27.8053C13.8706 27.8427 13.7876 27.8979 13.7177 27.9677C13.6479 28.0375 13.5927 28.1206 13.5553 28.212C13.518 28.3033 13.4992 28.4013 13.5 28.5C13.5 31.5 13.816 33.75 17.25 33.75H30.75Z" stroke="#216085" stroke-width="2" stroke-linejoin="round"/>
<path d="M22.5 18.75H31.5M25.5 22.5H31.5" stroke="#216085" stroke-width="2" strokeLinecap="round" stroke-linejoin="round"/>
</svg>
